<svg xmlns="http://www.w3.org/2000/svg" viewBox="0 0 21 22.2"><defs><style>.a{fill:#a1a1a1;}</style></defs><path class="a" d="M196.2,13.9a1.05,1.05,0,0,1-.5-.9,1.193,1.193,0,0,1,.5-.9s5.5-2.7,8.4-3.9a4.688,4.688,0,0,1,3.3,0l8.3,3.9a1.05,1.05,0,0,1,.5.9,1.193,1.193,0,0,1-.5.9s-5.5,2.7-8.4,3.9a4.688,4.688,0,0,1-3.3,0Zm20,4.2a1.05,1.05,0,0,1,.5.9,1.193,1.193,0,0,1-.5.9s-5.5,2.7-8.4,3.9a4.688,4.688,0,0,1-3.3,0l-8.3-3.9a1.05,1.05,0,0,1-.5-.9,1.193,1.193,0,0,1,.5-.9s.7-.4,1.8-.9l6.5,3.1a4.688,4.688,0,0,0,3.3,0c1.8-.7,4.8-2.1,6.6-3Zm0,6a1.05,1.05,0,0,1,.5.9,1.193,1.193,0,0,1-.5.9s-5.5,2.7-8.4,3.9a4.688,4.688,0,0,1-3.3,0l-8.3-3.9a1.05,1.05,0,0,1-.5-.9,1.193,1.193,0,0,1,.5-.9s.7-.4,1.8-.9l6.5,3.1a4.688,4.688,0,0,0,3.3,0c1.8-.7,4.8-2.1,6.6-3Z" transform="translate(-195.7 -7.9)"/></svg>